<?xml version="1.0" encoding="utf-8"?>
<!-- Generator: Adobe Illustrator 16.0.0, SVG Export Plug-In . SVG Version: 6.00 Build 0)  -->
<!DOCTYPE svg PUBLIC "-//W3C//DTD SVG 1.1//EN" "http://www.w3.org/Graphics/SVG/1.1/DTD/svg11.dtd">
<svg version="1.1" id="Layer_1" xmlns="http://www.w3.org/2000/svg" xmlns:xlink="http://www.w3.org/1999/xlink" x="0px" y="0px"
	 width="16px" height="16px" viewBox="0 0 16 16" enable-background="new 0 0 16 16" xml:space="preserve">
<rect x="0.36" fill="none" width="15.295" height="15.522"/>
<text transform="matrix(1.4213 0 0 1 0.3599 14.9102)" fill="#9E0D0D" font-family="'MyriadPro-Regular'" font-size="21">T</text>
<g>
	<title>Layer 1</title>
	<path id="path2392" fill="#003F7F" d="M4.693,15.666c0,0,0.365,0.025,2.592-0.258c3.373,0,5.666-2.648,5.666-5.676
		c0-2.726-2.437-5.142-5.952-5.142c-3.373,0-4.297,2.125-4.772,3.373c0.985-1.335,1.605-2.527,4.059-2.527
		c2.062,0,3.618,2.146,3.748,4.157c0.699,3.072-6.586,6.383-9.611,5.166C-0.066,14.76,2.384,15.873,4.693,15.666z"/>
	<path id="path2388" fill="#005FBF" d="M9.88,15.225c4.462,0,6.613-1.102,5.446-3.361c-0.622-1.809-4.812-8.218-2.529-4.302
		c-0.363-0.7,0.752,1.632,0.752,2.515C13.549,13.877,9.88,15.225,9.88,15.225z"/>
</g>
</svg>
